<svg xmlns="http://www.w3.org/2000/svg" width="539" height="539"><path d="M-.75-403.5H403.5V.75H-.75z" style="fill:#000;stroke:none;stroke-width:.671194;stroke-linecap:round;stroke-linejoin:round;stroke-opacity:1" transform="matrix(1.33333 0 0 1.33333 1 538)"/><g transform="matrix(1.33333 0 0 -1.33333 -66 538)"><path d="m206.616 233.112-.895-.895-.649.037-1.041.627-2.751-.861-3.315-1.924 9.943-5.071v-1.723l-.696.132.034-1.491 1.127-.763-2.122.233-1.06 1.16-.1 2.85-2.817.265-.199.663-2.685.067s-.564-.564-1.624-1.16c-1.061-.597.332-2.62.332-2.62l-1.028.1s-2.826 2.032-4.442 2.618c-3.641 1.32-6.165 1.823-11.468 1.89-5.303.066-6.496-6.066-6.496-6.066l-10.673.265-6.961 2.85.265 1.194s1.044 1.069 1.094 1.757c.034.469-.564 1.293-.564 1.293s-5.596.853-8.418.995c-2.55.128-5.22.627-7.657-.134-.19-.059-.445-.138-.497-.33-.076-.287.397-.796.397-.796l.2-1.028s-2.814-.478-3.78-.895c-.269-.117-.288-.535-.297-.828-.012-.392.127-.793.331-1.128.175-.287.45-.509.73-.696 1.848-1.239 6.098-2.717 6.098-2.717l-.147-.737-5.63-.327-.222-1.057 1.591-.034.1-1.99-1.26-.926-1.724-2.95-.066-1.56.696-.065.895 1.856 1.391.398 6.83 6.43 2.054-.431 10.706-3.148 2.088-1.06-1.756-1.029-.034-.53-1.16-.2v.598l-1.26.232-1.656-.232 1.027-2.122 4.441-3.049 1.724-.133-.133-.995-1.686-.917a14.016 14.016 0 0 1-10.7 4.968 13.956 13.956 0 0 1-1.205-.075l-.032.001-.012-.004a14.016 14.016 0 0 1-11.581-8.361l-.107-.154-.028-.145a14.015 14.015 0 0 1-1.05-5.28 14.015 14.015 0 0 1 10.518-13.564l.007-.003h.004a14.015 14.015 0 0 1 3.486-.448 14.016 14.016 0 0 1 13.916 12.378l2.745.764.596-2.42-2.916-3.578 32.98-.034-.133 8.088.853 1.32a14.483 14.483 0 0 1-.275-2.69c0-7.74 6.065-14.016 13.546-14.016 7.482 0 13.547 6.276 13.547 14.016 0 6.03-3.689 11.157-8.853 13.134l.076.533s-4.475 1.194-6.662.829c-.29-.048-.544-.1-.77-.154l.005.02 2.287.93 1.957.894s4.271.675 5.237.928c.455.119.251.921.231 1.391-.024.581-.209 1.153-.43 1.69-.44 1.068-1.078 2.051-1.757 2.985-1.303 1.791-2.825 3.423-4.409 4.971-1.014.992-2.084 1.94-3.248 2.751-.458.32-1.458.83-1.458.83l.079 2.093-.564 1.359zm5.152-12.797 2.297-.023s.516-.457 1.289-.55c.773-.094 1.64-.153 1.64-.153s1.132-1.05 1.407-1.781c.228-.607.14-1.946.14-1.946h-2.93s-.937-.047-1.687.75-2.156 3.703-2.156 3.703zm-47.843-5.233 1.192-.995-4.242-2.087-.564.396zm32.867-.673 4.5-.047-.141-1.406h-1.031l-7.735-4.64-2.578.046-2.11 1.125zm-25.922-.281 2.648-1.266.047-2.226s-1.406.82-2.438.234c-1.03-.586-1.359.305-1.359.305l-.398 1.242zm-4.724-.538 3.678-3.811-.132-2.454-.43-.132-8.254 3.712zm14.052-4.759.375-.61s-2.531-2.062-1.547-4.171c.984-2.11 3.656-1.688 3.656-1.688l-.094-.61s-3.711-.953-4.64 2.673c-.576 2.247 2.25 4.406 2.25 4.406zm4.969-.89 10.78-3.704-.046-.375-6.047.14-5.672 3.61zm26.592-.81c.069-1.426.068-2.788.062-3.499a5.813 6.014 0 0 1-.113-.004 5.813 6.014 0 0 1-.378-.04 5.813 6.014 0 0 1-.228-.037l-.964 3.328a9.062 9.375 0 0 0 1.621.252zm-59.322-.173a9.243 9.243 0 0 0 5.409-2.883c-3.106-.292-5.937-.166-5.937-.166zm62.023-.047a9.062 9.375 0 0 0 6.267-5.537c-1.387-1.031-3.1-1.8-3.1-1.8s-.069.198-.227.497a5.813 6.014 0 0 1-.038.088 5.813 6.014 0 0 1-.085.182 5.813 6.014 0 0 1-.09.177 5.813 6.014 0 0 1-.097.174 5.813 6.014 0 0 1-.101.172 5.813 6.014 0 0 1-.107.167 5.813 6.014 0 0 1-.113.164 5.813 6.014 0 0 1-.119.16 5.813 6.014 0 0 1-.123.156 5.813 6.014 0 0 1-.127.151 5.813 6.014 0 0 1-.133.147 5.813 6.014 0 0 1-.137.142 5.813 6.014 0 0 1-.142.137 5.813 6.014 0 0 1-.146.132 5.813 6.014 0 0 1-.151.128 5.813 6.014 0 0 1-.154.121 5.813 6.014 0 0 1-.158.117 5.813 6.014 0 0 1-.163.11 5.813 6.014 0 0 1-.165.106 5.813 6.014 0 0 1-.169.1 5.813 6.014 0 0 1-.171.092 5.813 6.014 0 0 1-.176.088 5.813 6.014 0 0 1-.177.082 5.813 6.014 0 0 1-.18.074 5.813 6.014 0 0 1-.182.069 5.813 6.014 0 0 1-.185.063 5.813 6.014 0 0 1-.187.057 5.813 6.014 0 0 1-.188.05 5.813 6.014 0 0 1-.05.012zm-65.356-.065 1.136-3.618a5.47 5.47 0 0 1-.508-.094 5.47 5.47 0 0 1-.63-.196 5.47 5.47 0 0 1-.602-.272 5.47 5.47 0 0 1-.565-.342 5.47 5.47 0 0 1-.52-.407 5.47 5.47 0 0 1-.468-.467 5.47 5.47 0 0 1-.38-.487c-1.444.406-2.996 1.311-3.45 1.587a9.24 9.24 0 0 0 5.987 4.296zm58.686-.972.284-.371 1.437-2.49a5.813 6.014 0 0 1-.19-.095 5.813 6.014 0 0 1-.41-.255 5.813 6.014 0 0 1-.392-.289 5.813 6.014 0 0 1-.368-.322 5.813 6.014 0 0 1-.34-.352 5.813 6.014 0 0 1-.102-.126c-.085.002-.178.011-.265.015l-2.73 1.137a9.062 9.375 0 0 0 3.076 3.148zm-41.81-.686 1.491-.018.845-1.357-3.662.03-.017.084zm-8.673-1.781-2.303-1.814a5.47 5.47 0 0 1-.013.013 5.47 5.47 0 0 1-.166.165 5.47 5.47 0 0 1-.17.156 5.47 5.47 0 0 1-.177.15 5.47 5.47 0 0 1-.185.142 5.47 5.47 0 0 1-.189.135 5.47 5.47 0 0 1-.194.126 5.47 5.47 0 0 1-.201.117 5.47 5.47 0 0 1-.205.108 5.47 5.47 0 0 1-.21.101 5.47 5.47 0 0 1-.213.091 5.47 5.47 0 0 1-.217.082 5.47 5.47 0 0 1-.221.072 5.47 5.47 0 0 1-.223.064 5.47 5.47 0 0 1-.226.053 5.47 5.47 0 0 1-.228.044 5.47 5.47 0 0 1-.093.014l-.013.033zm6.568-.39 5.121-.034-1.64-2.021-2.686-.067zm20.495-.233c.457-.087.797-.187.797-.187s-1.188-2.716 1.108-2.622c-.342-.437-.78-.706-.78-.706s-2.45.503-1.125 3.515zm19.082-3.337c1.007-.07 2.305-.252 3-.356a5.813 6.014 0 0 1-.006-.025 5.813 6.014 0 0 1-.126-.713 5.813 6.014 0 0 1-.044-.725 5.813 6.014 0 0 1 .044-.725 5.813 6.014 0 0 1 .126-.715 5.813 6.014 0 0 1 .21-.693 5.813 6.014 0 0 1 .287-.662 5.813 6.014 0 0 1 .363-.621 5.813 6.014 0 0 1 .434-.573 5.813 6.014 0 0 1 .263-.272l-2.515-1.679a9.062 9.375 0 0 0-2.194 6.105 9.062 9.375 0 0 0 .158 1.654zm-38.793-.132 2.86-.023-.024-1.687-2.883-.422.023 1.945zm-18.894-.074a5.47 5.47 0 0 1-.034-.109 5.47 5.47 0 0 1-.118-.649 5.47 5.47 0 0 1-.041-.66 5.47 5.47 0 0 1 .04-.66 5.47 5.47 0 0 1 .12-.648 5.47 5.47 0 0 1 .196-.63 5.47 5.47 0 0 1 .27-.604 5.47 5.47 0 0 1 .342-.564 5.47 5.47 0 0 1 .407-.52 5.47 5.47 0 0 1 .274-.274c-.81-1.089-2.047-2.202-2.626-2.7a9.243 9.243 0 0 0-2.797 6.6 9.243 9.243 0 0 0 .12 1.403h.397zm5.277-.59a.829.829 0 0 0 .829-.828.829.829 0 0 0-.83-.828.829.829 0 0 0-.829.828.829.829 0 0 0 .83.829zm70.346-.138a9.062 9.375 0 0 0 .027-.72 9.062 9.375 0 0 0-2.749-6.704c-1.212.732-2.45 2.13-2.537 2.23a5.813 6.014 0 0 1 .31.32 5.813 6.014 0 0 1 .434.573 5.813 6.014 0 0 1 .363.621 5.813 6.014 0 0 1 .287.662 5.813 6.014 0 0 1 .21.693 5.813 6.014 0 0 1 .126.715 5.813 6.014 0 0 1 .042.725 5.813 6.014 0 0 1-.003.255 5.813 6.014 0 0 1-.016.255 5.813 6.014 0 0 1-.019.177zm-9.3-.041a.815.843 0 0 0 .815-.844.815.843 0 0 0-.814-.844.815.843 0 0 0-.815.844.815.843 0 0 0 .815.844zm-51.81-.296c.003-.118.006-.235.006-.353a9.259 9.259 0 0 0-.395-2.618 2.26 2.26 0 0 0-.287-.47c-2.065-.335-3.727-.726-4.721-.793a5.47 5.47 0 0 1 .254.255 5.47 5.47 0 0 1 .408.52 5.47 5.47 0 0 1 .341.564 5.47 5.47 0 0 1 .271.604 5.47 5.47 0 0 1 .196.63 5.47 5.47 0 0 1 .119.649 5.47 5.47 0 0 1 .04.625zm-.9-4.311a9.243 9.243 0 0 0-1.418-2.171c-.856.67-1.774 1.743-1.774 1.743zm-11.083-.76a5.47 5.47 0 0 1 .205-.124 5.47 5.47 0 0 1 .602-.272 5.47 5.47 0 0 1 .63-.196 5.47 5.47 0 0 1 .65-.119 5.47 5.47 0 0 1 .66-.04 5.47 5.47 0 0 1 .659.04 5.47 5.47 0 0 1 .65.119 5.47 5.47 0 0 1 .63.196 5.47 5.47 0 0 1 .602.272 5.47 5.47 0 0 1 .097.06c.873-1.164 1.555-2.773 1.777-3.329a9.243 9.243 0 0 0-4.415-1.13 9.243 9.243 0 0 0-4.029.938l.204.388zm66.766-.64 1.031-3.192a9.062 9.375 0 0 0-3.738-.855 9.062 9.375 0 0 0-4.333 1.15c.287 1.011.925 2.195 1.27 2.795a5.813 6.014 0 0 1 .207-.118 5.813 6.014 0 0 1 .492-.224 5.813 6.014 0 0 1 .508-.178 5.813 6.014 0 0 1 .523-.127 5.813 6.014 0 0 1 .532-.076 5.813 6.014 0 0 1 .536-.028 5.813 6.014 0 0 1 .536.028 5.813 6.014 0 0 1 .532.076 5.813 6.014 0 0 1 .523.127 5.813 6.014 0 0 1 .508.178 5.813 6.014 0 0 1 .492.224 5.813 6.014 0 0 1 .381.22z" style="fill:#fff;stroke-width:.75"/><path d="m234.603 273.52 16.768-19.354 16.768 19.354zM268.139 133.718l-16.768 19.354-16.768-19.354Z" style="fill:#fff;stroke-width:.753989"/><path d="M176.67 277.335s71.197-77.717 149.402-149.579c-72.59 76.955-72.838 76.83-149.402 149.579z" style="fill:#fff;stroke-width:.75"/><path d="M326.16 277.246s-77.717-71.196-149.578-149.401c76.954 72.59 76.83 72.837 149.578 149.401zM136.896 295.993l-.819.763 6.082 5.864s2.04 1.064 4.613-.09c2.573-1.152 13.53-5.899 13.53-5.899l-5.723 13.885s-.71 3.193.621 4.613c1.331 1.42 5.878 5.456 5.878 5.456s1.375-.71 1.375-1.686c0-.975.258-2.59.258-2.59l11.253-11.738s2.263-2.306 5.19-2.484c2.928-.177-7.63-8.428-7.63-8.428s-1.419-.887-1.596 2.307c-.143 2.575-10.735 13.219-10.735 13.219l7.496-18.454s.178-3.238-2.572-3.593-17.212 7.364-17.212 7.364l9.67-10.247s4.854-.318 3.328-1.597c-2.912-2.44-5.19-5.101-5.19-5.101s-1.385-.264-1.243 3.016c.09 2.04-13.174 14.994-13.174 14.994zM332.976 323.254c-.12-.004-.238-.016-.36-.022.002-.438-.269-3.224-.269-3.224s-14.867-9.025-18.61-11.913c-.933-.03-2.07-.06-3.53-.128-.011-.382 0-.211 0-.7 1.563-1.426 3.453-2.684 4.578-3.704.793-.054 2.077-.108 2.123-.007.075.095-.01 1.083-.01 1.083l4.773 4.344 7.244-5.072s-.956-6.211-2.947-6.368c-.376-.246-.668-.737-.942-1.223 1.487-1.602 7.37-5.898 7.37-5.898s1.047-1.033 1.696-.234c.674.831-.643 1.427-.643 1.427l.423 3.763s4.767 16.625 5.332 18.067c.565 1.443.437 3.282.44 4.392-1.76 1.858-4.492 4.388-5.308 4.953-.611.423-1 .475-1.36.464zm-.48-7.033-2.626-10.5-6.656 4.875zM287.035 345.294s-.532-.666-.221-1.686c1.056-3.023-.946-9.468-1.55-11.373-1.157-3.646-4.907-10.55-6.257-10.82-.546-.627-.665-1.552-.665-1.552l10.434-3.812s.33.692.403 1.663c-1.747 1.744 1.606 10.3 1.606 10.3s5.568-2.208 8.584-3.716c-2.085-6.476-4.513-8.182-5.695-8.79-.139-.567-.295-1.32-.295-1.32l10.548-3.887s.908 1.92.598 2.94c-.426 3.006 1.595 9.5 1.948 10.398 1.293 3.28 3.966 9.895 5.315 10.165 1.33.266 1.463 1.598 1.463 1.598l-10.202 3.725s-1.064.31-.842-1.42c.633-4.943-2.218-11-2.218-11s-5.19 1.951-8.206 3.46c2.085 6.476 4.254 8.527 5.41 9.182 1.332.755.045 2.04.045 2.04zM357.515 302.36c-.786-.426-.906-.702-1.28-1.598-.465-2.412-4.747-6.328-6.747-8.09 0 0-7.489-6.864-10.608-7.063-.907.048-1.484.17-1.624-.588 1.52-2 6.287-7.328 7.53-8.705.785.426.904.704 1.278 1.6.466 2.412 4.647 6.426 6.647 8.189 0 0 7.59 6.763 10.708 6.963.907-.048 1.485-.169 1.625.589-1.52 2-6.287 7.326-7.53 8.704z" style="fill:#fff;stroke-width:.75"/><g style="font-weight:700;font-size:24px;font-family:&quot;MS UI Gothic&quot;;-inkscape-font-specification:&quot;MS UI Gothic Bold&quot;;fill:#fff;stroke-width:.75"><path d="m116.512-194.256.19 1.232c-.993.758-1.88 1.661-2.428 2.659-6.476 12.891-5.746 12.2-12.716-.696-.272-.528-.35-.738-.59-.914-.24-.192-1.201-.492-1.377-.492l-.154-1.204c3.308-.166 4.21.024 7.274-.103.003.515.064.959.072 1.033-.268.52-.053 1.189.136 1.738l3.515 4.266c-2.14 3.128.771-2.15 1.249-2.65.624-1.233.93-1.836.978-2.54.232-1.056-.304-1.305-.46-1.458v-.48c.824.022 2.435-.233 4.31-.391zm-5.455 8.323.325 6.124c.095.443.289 1.426.977 2.006.256.096.093.15.52.286l-.07.584a26.076 26.076 0 0 0-1.776-.048 96.15 96.15 0 0 0-4.392 0c-.704 0-1.264.016-1.68.048v-.48c.741-.313.578-1.089.817-1.99.096-.288 1.068-5.004 1.068-5.58-.416-8.72.799 4.294 4.21-.95z" aria-label="Y" style="font-family:&quot;Playfair Display&quot;;-inkscape-font-specification:&quot;Playfair Display Bold&quot;;fill:#fff" transform="matrix(.16754 -.73653 -.78989 -.15623 -48.983 217.713)"/></g><g style="font-weight:700;font-size:24px;font-family:&quot;Playfair Display&quot;;-inkscape-font-specification:&quot;Playfair Display Bold&quot;;fill:#fff;stroke-width:.75"><path d="m-24.733-208.893-.072 1.31c-1.153 1.253-.812 1.283-.939 2.643-.19 3.139-.237 4.262-.564 7.122-.252 2.204-1.426 4.89-3.418 5.656-1.557.598-4.048 1.048-5.804.609-3.49-.873-4.474-2.324-4.691-4.038-.437-3.445.404-7.763.524-11.057.034-.925-.293-.783-.871-1.308l.19-.81c2.63-.043 3.3-.013 5.856-.255.135.45-.055.88.016 1.276-.42.402-.77.957-.747 1.444l-.726 9.778c.077 1.978 2.414 3.519 3.994 1.89 1.828-1.884 1.607-9.513 1.865-12.669-.058-.376.028-.52-.503-.514l-.03-.906c2.422-.035 3.762-.107 5.92-.171z" aria-label="U" style="fill:#fff" transform="matrix(.46199 -.6928 -.6393 -.4998 20.959 1.123)"/></g><g aria-label="D" style="font-weight:700;font-size:19.5252px;font-family:&quot;Playfair Display&quot;;-inkscape-font-specification:&quot;Playfair Display Bold&quot;;fill:#fff;stroke-width:.610161"><path d="M42.837-185.531c4.592-.064 7.783 2.665 7.83 6.756-.091 2.764-1.447 5.065-3.69 6.19-1.198.585-2.636.878-4.316.878-1.966-.105-4.025.05-5.739-.108l-.01-.567c.826-.723.857-1.003.958-1.832l-.101-8.82c-.32-.824-.936-1.424-1.144-1.789l.061-.635c.352.013.704-.04 1.29-.014.585.013 1.17.013 1.757 0 .468-.013 1.002-.026 1.6-.04.6-.013 1.1-.019 1.504-.019zm.012 1.262c-1.083.267-.994 1.125-1.07 1.572.293 2.838.036 4.154.504 8.935.195.222-.06.606.533.527 1.037-.14 1.321-.418 1.907-.926 2.235-2.623 1.815-7.365-.05-9.503-.585-.481-.874-.605-1.824-.605z" style="fill:#fff" transform="matrix(.72507 -.68919 -.7008 -.71306 -.411 -.185)"/><path d="M42.837-185.531c4.592-.064 7.783 2.665 7.83 6.756-.091 2.764-1.447 5.065-3.69 6.19-1.198.585-2.636.878-4.316.878-1.966-.105-4.025.05-5.739-.108l-.01-.567c.826-.723.857-1.003.958-1.832l-.101-8.82c-.32-.824-.936-1.424-1.144-1.789l.061-.635c.352.013.704-.04 1.29-.014.585.013 1.17.013 1.757 0 .468-.013 1.002-.026 1.6-.04.6-.013 1.1-.019 1.504-.019zm.012 1.262c-1.083.267-.994 1.125-1.07 1.572.293 2.838.036 4.154.504 8.935.195.222-.06.606.533.527 1.037-.14 1.321-.418 1.907-.926 2.235-2.623 1.815-7.365-.05-9.503-.585-.481-.874-.605-1.824-.605z" style="fill:#fff" transform="matrix(.72507 -.68919 -.7008 -.71306 -.411 -.185)"/></g><g aria-label="D" style="font-weight:700;font-size:19.5252px;font-family:&quot;Playfair Display&quot;;-inkscape-font-specification:&quot;Playfair Display Bold&quot;;fill:#fff;stroke-width:.610161"><path d="M42.837-185.531c4.592-.064 7.783 2.665 7.83 6.756-.091 2.764-1.447 5.065-3.69 6.19-1.198.585-2.636.878-4.316.878-1.966-.105-4.025.05-5.739-.108l-.01-.567c.826-.723.857-1.003.958-1.832l-.101-8.82c-.32-.824-.936-1.424-1.144-1.789l.061-.635c.352.013.704-.04 1.29-.014.585.013 1.17.013 1.757 0 .468-.013 1.002-.026 1.6-.04.6-.013 1.1-.019 1.504-.019zm.012 1.262c-1.083.267-.994 1.125-1.07 1.572.293 2.838.036 4.154.504 8.935.195.222-.06.606.533.527 1.037-.14 1.321-.418 1.907-.926 2.235-2.623 1.815-7.365-.05-9.503-.585-.481-.874-.605-1.824-.605z" style="fill:#fff" transform="matrix(.46533 .88554 .87715 -.47977 510.452 10.826)"/><path d="M42.837-185.531c4.592-.064 7.783 2.665 7.83 6.756-.091 2.764-1.447 5.065-3.69 6.19-1.198.585-2.636.878-4.316.878-1.966-.105-4.025.05-5.739-.108l-.01-.567c.826-.723.857-1.003.958-1.832l-.101-8.82c-.32-.824-.936-1.424-1.144-1.789l.061-.635c.352.013.704-.04 1.29-.014.585.013 1.17.013 1.757 0 .468-.013 1.002-.026 1.6-.04.6-.013 1.1-.019 1.504-.019zm.012 1.262c-1.083.267-.994 1.125-1.07 1.572.293 2.838.036 4.154.504 8.935.195.222-.06.606.533.527 1.037-.14 1.321-.418 1.907-.926 2.235-2.623 1.815-7.365-.05-9.503-.585-.481-.874-.605-1.824-.605z" style="fill:#fff" transform="matrix(.46533 .88554 .87715 -.47977 510.452 10.826)"/></g><g style="font-weight:700;font-size:50.4929px;font-family:&quot;Playfair Display&quot;;-inkscape-font-specification:&quot;Playfair Display Bold&quot;;fill:#fff;stroke-width:1.57791"><path d="M329.604-193.925c4.196.042 8.624 1.644 11.139 5.188 2.038 2.873 2.668 6.568 2.077 10.023-.7 4.094-2.348 7.928-5.746 10.393-2.242 1.626-5.242 2.121-7.933 1.96-3.004-.18-6.11-.85-8.42-2.919-3.171-2.844-4.854-7.046-4.596-11.333.234-3.878 1.72-7.943 4.753-10.624 2.374-2.1 5.657-2.719 8.726-2.688zm-.069 2.431c-2.494.28-3.672 2.623-4.72 4.802-.99 2.058-1.518 4.553-1.48 6.833.05 3.103.185 6.553 2.402 9.003.96 1.062 2.582 2.22 4.041 1.672 2.884-1.082 4.186-4.253 4.874-7.043.566-2.297.765-4.68.492-7.037-.293-2.534-.46-5.429-2.374-7.32-.84-.829-2.085-1.038-3.235-.91z" aria-label="o" style="fill:#fff" transform="scale(1 -1) rotate(-33.557 24.182 -22.987)"/></g><g style="font-weight:700;font-size:50.4929px;font-family:&quot;Playfair Display&quot;;-inkscape-font-specification:&quot;Playfair Display Bold&quot;;fill:#fff;stroke-width:1.57791"><path d="M329.604-193.925c4.196.042 8.624 1.644 11.139 5.188 2.038 2.873 2.668 6.568 2.077 10.023-.7 4.094-2.348 7.928-5.746 10.393-2.242 1.626-5.242 2.121-7.933 1.96-3.004-.18-6.11-.85-8.42-2.919-3.171-2.844-4.854-7.046-4.596-11.333.234-3.878 1.72-7.943 4.753-10.624 2.374-2.1 5.657-2.719 8.726-2.688zm-.069 2.431c-2.494.28-3.672 2.623-4.72 4.802-.99 2.058-1.518 4.553-1.48 6.833.05 3.103.185 6.553 2.402 9.003.96 1.062 2.582 2.22 4.041 1.672 2.884-1.082 4.186-4.253 4.874-7.043.566-2.297.765-4.68.492-7.037-.293-2.534-.46-5.429-2.374-7.32-.84-.829-2.085-1.038-3.235-.91z" aria-label="o" style="fill:#fff" transform="scale(1 -1) rotate(1.267 7324.193 -3428.008)"/></g><g style="font-weight:700;font-size:50.4929px;font-family:&quot;Playfair Display&quot;;-inkscape-font-specification:&quot;Playfair Display Bold&quot;;fill:#fff;stroke-width:1.57791"><path d="M329.604-193.925c4.196.042 8.514 1.725 11.139 5.188 1.88 2.482 2.668 6.568 2.077 10.023-.7 4.094-2.708 8.683-5.83 10.863-2.27 1.587-5.158 1.651-7.85 1.49-3.003-.18-6.11-.85-8.418-2.919-3.172-2.844-5.046-7.183-4.597-11.333.418-3.863 1.72-7.943 4.753-10.624 2.374-2.1 5.657-2.719 8.726-2.688zm-.069 2.431c-2.494.28-4 2.63-4.72 4.802-.718 2.168-1.286 4.454-1.248 6.734.05 3.103-.047 6.652 2.17 9.102.96 1.062 2.582 2.22 4.041 1.672 2.884-1.082 4.186-4.253 4.874-7.043.566-2.297.765-4.68.492-7.037-.293-2.534-.46-5.429-2.374-7.32-.84-.829-2.085-1.038-3.235-.91z" aria-label="o" style="fill:#fff" transform="matrix(.23714 -.45571 -.45571 -.23714 -37.31 252.23)"/></g><g style="font-weight:700;font-size:50.4929px;font-family:&quot;Playfair Display&quot;;-inkscape-font-specification:&quot;Playfair Display Bold&quot;;fill:#fff;stroke-width:1.57791"><path d="M329.604-193.925c4.196.042 8.624 1.644 11.139 5.188 2.038 2.873 2.668 6.568 2.077 10.023-.7 4.094-2.194 8.487-5.83 10.863-2.318 1.516-5.158 1.651-7.85 1.49-3.003-.18-6.11-.85-8.418-2.919-3.172-2.844-5.046-7.183-4.597-11.333.418-3.863 1.72-7.943 4.753-10.624 2.374-2.1 5.657-2.719 8.726-2.688zm-.069 2.431c-2.494.28-4 2.63-4.72 4.802-.718 2.168-1.286 4.454-1.248 6.734.05 3.103-.047 6.652 2.17 9.102.96 1.062 2.582 2.22 4.041 1.672 2.884-1.082 4.186-4.253 4.874-7.043.566-2.297.765-4.68.492-7.037-.293-2.534-.46-5.429-2.374-7.32-.84-.829-2.085-1.038-3.235-.91z" aria-label="o" style="fill:#fff" transform="matrix(.38854 .33607 .33607 -.38854 258.935 -97.933)"/></g><g style="font-weight:700;font-size:24px;font-family:&quot;Playfair Display&quot;;-inkscape-font-specification:&quot;Playfair Display Bold&quot;;fill:#fff;stroke-width:.75"><path d="M179.19-67.941c.076 1.194.357 2.37.35 3.57-.876.554-1.937.71-2.932.882-.789-.262-.832-1.332-1.541-1.755-.76-.81-1.934-1.592-3.067-1.044-.517.66-.34 1.695-.575 2.51-.463 2.787-.982 5.667-.283 8.463-.038 1.422 1.178 2.421 2.575 2.162 1.727-.046 3.554-.695 4.633-2.098.138-.43.732-.036 1.09-.074.776.093.102 1.42.239 1.973-.273.708.194 2.345-.918 2.059-4.35-.184-8.709.015-13.056-.253-.1-.735.762-1.073.736-1.869.19-1.197.066-2.422.107-3.632.011-3.154.012-6.312.036-9.463-.078-.688-1.005-.808-.723-1.567.895-.35 2.395-.044 3.51-.11 3.272.084 6.543.363 9.818.246zm-8.582 9.11c-.13-.653-.216-1.308-.106-1.97-.12-.875 1.036-.03 1.517-.093 1.039.273 2.143.395 3.113.872-.307.697-1.785.553-2.54.83-.66.122-1.323.24-1.984.36zm5.099-2.796c.085 1.227.03 2.459.03 3.688-.7.187-.995-.61-1.638-.735-1.074-.41-2.17-.783-3.23-1.214.752-.432 1.743-.528 2.583-.844.798-.1 1.335-.93 2.117-.895h.138z" aria-label="E" style="fill:#fff" transform="matrix(.67881 -.44224 -.43295 -.69338 30.908 118.587)"/></g><g style="font-weight:700;font-size:24px;font-family:&quot;Playfair Display&quot;;-inkscape-font-specification:&quot;Playfair Display Bold&quot;;fill:#fff;stroke-width:.75"><path d="M179.19-67.941c.244 1.187.615 3.22.35 3.57-.394.254-1.958.634-2.932.882-.782-1.075-.894-1.285-1.541-1.755-.901-.655-2.104-.67-3.257-.652-1.106 3.636-1.15 9.2-.445 12.22 2.026.645 5.533.39 6.985-1.575a5.85 5.85 0 0 1 1.09-.074c.304.104.258 1.804.239 1.973-.027.234.248 2.229-.918 2.059-4.35-.184-8.709.015-13.056-.253-.1-.735.762-1.073.736-1.869.224-4.375.114-9.114.143-13.095-.079-.688-1.005-.808-.723-1.567.895-.35 2.395-.044 3.51-.11 3.291.152 6.543.363 9.818.246zm-8.582 9.11c-.13-.653-.216-1.308-.106-1.97-.12-.875 1.036-.03 1.517-.093 1.039.273 2.143.395 3.113.872-.307.697-1.785.553-2.54.83-.66.122-1.323.24-1.984.36zm5.099-2.796c.085 1.227-.06 2.36-.062 3.588-.7.188-.903-.51-1.546-.635-3.093-1.285-3.884-.877-.647-2.058.798-.1 1.335-.93 2.117-.895z" aria-label="E" style="fill:#fff" transform="matrix(.7769 -.22976 -.2167 -.7882 63.437 59.01)"/></g><g style="font-weight:700;font-size:24px;font-family:&quot;Playfair Display&quot;;-inkscape-font-specification:&quot;Playfair Display Bold&quot;;fill:#fff;stroke-width:.75"><path d="M179.19-67.941c.244 1.187.615 3.22.35 3.57-.394.254-1.958.634-2.932.882-.782-1.075-.894-1.285-1.541-1.755-.901-.655-2.104-.67-3.257-.652-1.106 3.636-1.15 9.2-.445 12.22 2.026.645 5.533.39 6.985-1.575a5.85 5.85 0 0 1 1.09-.074c.304.104.258 1.804.239 1.973-.027.234.248 2.229-.918 2.059-4.35-.184-8.709.015-13.056-.253-.1-.735.762-1.073.736-1.869.224-4.375.114-9.114.143-13.095-.079-.688-1.005-.808-.723-1.567.895-.35 2.395-.044 3.51-.11 3.291.152 6.543.363 9.818.246zm-8.582 9.11c-.13-.653-.216-1.308-.106-1.97-.12-.875 1.036-.03 1.517-.093 1.039.273 2.143.395 3.113.872-.307.697-1.785.553-2.54.83-.66.122-1.323.24-1.984.36zm5.099-2.796c.085 1.227-.06 2.36-.062 3.588-.7.188-.903-.51-1.546-.635-3.093-1.285-3.884-.877-.647-2.058.798-.1 1.335-.93 2.117-.895z" aria-label="E" style="fill:#fff" transform="matrix(.79901 .13396 .15066 -.80344 146.088 -8.72)"/></g><g style="font-weight:700;font-size:24px;font-family:&quot;Playfair Display&quot;;-inkscape-font-specification:&quot;Playfair Display Bold&quot;;fill:#fff;stroke-width:.75"><path d="M179.19-67.941c.244 1.187.615 3.22.35 3.57-.394.254-1.958.634-2.932.882-.782-1.075-.894-1.285-1.541-1.755-.901-.655-2.104-.67-3.257-.652-1.106 3.636-1.15 9.2-.445 12.22 2.026.645 5.533.39 6.985-1.575a5.85 5.85 0 0 1 1.09-.074c.304.104.258 1.804.239 1.973-.027.234.248 2.229-.918 2.059-4.35-.184-8.709.015-13.056-.253-.1-.735.762-1.073.736-1.869.224-4.375.114-9.114.143-13.095-.079-.688-1.005-.808-.723-1.567.895-.35 2.395-.044 3.51-.11 3.291.152 6.543.363 9.818.246zm-8.582 9.11c-.13-.653-.216-1.308-.106-1.97-.12-.875 1.036-.03 1.517-.093 1.039.273 2.143.395 3.113.872-.307.697-1.785.553-2.54.83-.66.122-1.323.24-1.984.36zm5.099-2.796c.085 1.227-.06 2.36-.062 3.588-.7.188-.903-.51-1.546-.635-3.093-1.285-3.884-.877-.647-2.058.798-.1 1.335-.93 2.117-.895z" aria-label="E" style="fill:#fff" transform="matrix(.24694 .77161 .7832 -.23413 387.02 8.575)"/></g><g style="font-weight:700;font-size:24px;font-family:&quot;Playfair Display&quot;;-inkscape-font-specification:&quot;Playfair Display Bold&quot;;fill:#fff;stroke-width:.75"><path d="m465.984-184.055-.457 11.578h-3l-.433-11.578zm-1.921 17.075q-.938 0-1.547-.563-.61-.574-.61-1.383 0-.844.61-1.383.62-.539 1.546-.539.938 0 1.536.551.597.54.597 1.371 0 .844-.597 1.395-.586.55-1.535.55z" aria-label="!" style="font-family:&quot;Nirmala UI&quot;;-inkscape-font-specification:&quot;Nirmala UI Bold&quot;;fill:#fff" transform="scale(.9537 -.9537) rotate(-81.428 431.91 -144.05)"/></g><g style="font-weight:700;font-size:24px;font-family:&quot;Nirmala UI&quot;;-inkscape-font-specification:&quot;Nirmala UI Bold&quot;;fill:#fff;stroke-width:.75"><path d="M202.89 27.957c0-.366.065-.617.153-.762.165-.274.808-.943 1.539-.67.936.351 2.02 2.2 2.55.973.603-1.393-1.397-1.51-2.457-1.808-1.095-.307-2.028-1.035-2.53-2.021-.528-1.036.332-2.065 1.295-2.848.645-.523 1.837-1.092 2.53-1.19 1.03-.146 1.69.071 2.084.412.435.376.667.822.323 1.378-.643 1.039-1.578.781-2.159.162-.204-.218-.358-.792-.723-.705-.711.168-.942.737-.767 1.306.299.971 1.283.93 1.65 1.05 1.523.501 3.63 1.306 3.278 3.144-.104.539-.867 1.264-1.418 1.664-1.935 1.403-5.347 2.389-5.347-.085z" aria-label="S" style="font-family:&quot;Courier New&quot;;-inkscape-font-specification:&quot;Courier New Bold&quot;;fill:#fff;stroke-width:.466996" transform="matrix(1.0197 -1.01668 -.8703 -1.1912 3.016 312.14)"/></g><g aria-label="R" style="font-weight:700;font-size:24px;font-family:&quot;Microsoft Himalaya&quot;;-inkscape-font-specification:&quot;Microsoft Himalaya Bold&quot;;fill:#fff;stroke-width:.75"><path d="M230.71-42.565c-.616.118-1.392-.044-1.872-.487-.697-1.497-1.669-3.997-1.669-3.997-.406.043-.127-.016-.49-.033l.181 3.23c.163.488.171.446.42.588l-.034.5-4.197-.087c-.051-.18-.031-.385-.006-.55.627-.267.472-.552.866-1.27l-.264-7.588c-.227-.58-.18-.41-.505-.936v-.293c2.023.161 4.224-.451 6.002.196.813.328 1.602 1.096 1.975 1.812.415 1.194-.205 2.513-.726 3.117-.422.476-.865.424-1.762.654l.883 2.001c.588.22 1.255-.11 1.353-.077.236-.088.701-.002.976.325.332.395.476 1.888.105 2.266-.449.456-.583.503-1.235.629zm-4.274-5.646c.47-.047.718-.054.99-.301.456-.413.935-1.025.951-1.6.014-.513-.095-1.87-.624-2.16-.58-.317-1.057-.414-1.079-.115z" style="fill:#fff" transform="matrix(.96426 .91841 .84165 -.90938 173.938 -147.99)"/><path d="M230.71-42.565c-.627 0-1.392-.044-1.872-.487-.697-1.497-1.669-3.997-1.669-3.997-.183.014-.262.03-.49-.033l.181 3.23c.163.488.171.446.42.588l-.034.5-4.197-.087c-.051-.18-.031-.385-.006-.55.627-.267.472-.552.866-1.27l-.264-7.588c-.227-.58-.18-.41-.505-.936v-.293c2.678.322 6.597-1.137 7.977 2.008.48 1.166-.205 2.513-.726 3.117-.422.476-.865.424-1.762.654l.883 2.001c.267.606 1.252-.06 1.353-.077 1.662-.14 1.688 1.871 1.08 2.59-.448.457-.582.504-1.234.63zm-4.274-5.646c.778.28 1.894-1.076 1.941-1.9-.068-1.756-.947-2.462-1.975-2.41z" style="fill:#fff" transform="matrix(.96426 .91841 .84165 -.90938 173.938 -147.99)"/></g><g aria-label="R" style="font-weight:700;font-size:24px;font-family:&quot;Microsoft Himalaya&quot;;-inkscape-font-specification:&quot;Microsoft Himalaya Bold&quot;;fill:#fff;stroke-width:.75"><path d="M230.71-42.565c-.616.118-1.392-.044-1.872-.487-.697-1.497-1.669-3.997-1.669-3.997-.406.043-.127-.016-.49-.033l.181 3.23c.163.488.171.446.42.588l-.034.5-4.197-.087c-.051-.18-.031-.385-.006-.55.627-.267.472-.552.866-1.27l-.264-7.588c-.227-.58-.18-.41-.505-.936v-.293c2.023.161 4.224-.451 6.002.196.813.328 1.602 1.096 1.975 1.812.415 1.194-.205 2.513-.726 3.117-.422.476-.865.424-1.762.654l.883 2.001c.588.22 1.255-.11 1.353-.077.236-.088.701-.002.976.325.332.395.476 1.888.105 2.266-.449.456-.583.503-1.235.629zm-4.274-5.646c.47-.047.718-.054.99-.301.456-.413.935-1.025.951-1.6.014-.513-.095-1.87-.624-2.16-.58-.317-1.057-.414-1.079-.115z" style="fill:#fff" transform="matrix(1.32358 -.14634 -.15378 -1.22951 -77.145 35.874)"/><path d="M230.71-42.565c-.627 0-1.392-.044-1.872-.487-.697-1.497-1.669-3.997-1.669-3.997-.183.014-.262.03-.49-.033l.181 3.23c.163.488.171.446.42.588l-.034.5-4.197-.087c-.051-.18-.031-.385-.006-.55.627-.267.472-.552.866-1.27l-.264-7.588c-.227-.58-.18-.41-.505-.936v-.293c2.678.322 6.597-1.137 7.977 2.008.48 1.166-.205 2.513-.726 3.117-.422.476-.865.424-1.762.654l.883 2.001c.267.606 1.252-.06 1.353-.077 1.662-.14 1.688 1.871 1.08 2.59-.448.457-.582.504-1.234.63zm-4.274-5.646c.778.28 1.894-1.076 1.941-1.9-.068-1.756-.947-2.462-1.975-2.41z" style="fill:#fff" transform="matrix(1.32358 -.14634 -.15378 -1.22951 -77.145 35.874)"/></g><g style="font-weight:700;font-size:24px;font-family:&quot;Microsoft Himalaya&quot;;-inkscape-font-specification:&quot;Microsoft Himalaya Bold&quot;;fill:#fff;stroke-width:.75"><path d="M253.627-44.313h3.363v.296c-.18.247-.237.45-.17.862.188 1.14.451 1.838 1.107 2.855.472-1.066 1.033-2.113 1.37-3.18.043-.136.045-.514-.293-.537v-.296h2.328v.296a1.354 1.354 0 0 0-.408.095c-.366.163-.502.55-.64.864l-2.236 6.239h-1.074c-.932-2.089-1.695-4.215-2.576-6.363-.384-.408-.443-.476-.771-.835z" aria-label="v" style="fill:#fff;stroke-width:.751245" transform="matrix(1.77643 0 0 -1.8594 -204.006 -15.08)"/></g><path d="M292.892 220.823s3.62 19.078 30.347 17.28c16.822-1.133 23.582-13.516 25.97-15.432 1.583-1.27 3.911-3.315 3.911-3.315l-1.856-1.657-.066-8.22s1.11-1.757.248-3.878c-.862-2.121-1.587-3.317-1.972-4.342-.203-.54-.68-2.436-.48-3.132.68-2.38 2.368-3.583 2.434-4.578.067-.994-6.794-4.591-15.809-6.808-12.131-2.983-28.77-3.314-28.77-3.314l-16.573-4.376-4.11 8.486s22.937 7.557 31.62 13.523c-18.494-9.546-31.885-11.468-31.885-11.468l2.055 2.386.795 4.84z" style="fill:none;stroke:#fff;stroke-width:.75;stroke-linecap:round;stroke-linejoin:round;stroke-opacity:1"/><path d="M291.808 220.221s-6.493-12.234-4.688-23.063c14.906.75 24.281 5.157 24.281 5.157s12.985 4.244 15.75 9.187c2.396 4.282.851 7.33-6.289 7.964-9.412.835-16.21-.276-19.492-.183-3.281.094-9.562.938-9.562.938z" style="fill:#fff;stroke-width:.75"/><circle cx="337.065" cy="-197.323" r="2.039" style="fill:#fff;stroke:#fff;stroke-width:.75;stroke-linecap:round;stroke-linejoin:round;stroke-opacity:1" transform="scale(1 -1)"/><ellipse cx="339.55" cy="-200.205" rx=".621" ry=".691" style="fill:#fff;stroke:#fff;stroke-width:.680124;stroke-linecap:round;stroke-linejoin:round;stroke-opacity:1" transform="scale(1 -1)"/><path d="M292.928 220.947s5.7-.928 7.623-.861c1.923.066 15.313.563 15.313.563s11.436.497 13.06-3.281c1.465-3.41-1.326-9.612-1.326-9.612L316.792 194.1l5.039-.266 9.48 10.607-1.26 4.773s11.986 3.396 19.622 8.95c.73.53 3.38 1.325 3.38 1.325l-4.308 3.646-4.11 4.64s-8.088 11.27-26.65 10.474c-17.777-.761-23.864-11.866-25.057-17.302z" style="fill:none;stroke:#fff;stroke-width:.75;stroke-linecap:round;stroke-linejoin:round;stroke-opacity:1"/><path d="m306.772 183.416 10.432 11.095-10.476-11.107Z" style="fill:#fff;stroke:#fff;stroke-width:.75;stroke-linecap:round;stroke-linejoin:round;stroke-opacity:1"/><path d="M356.58 120.961c.321-.368.481-.397.998-.484 1.323.056 3.912-1.75 5.086-2.6 0 0 4.535-3.156 5.03-4.808.087-.494.096-.82.51-.8.86 1.072 3.06 4.314 3.627 5.157-.322.369-.483.398-.999.485-1.323-.057-3.951 1.682-5.126 2.534 0 0-4.495 3.222-4.989 4.874-.088.494-.097.82-.512.8-.86-1.073-3.058-4.314-3.625-5.158z" style="fill:#fff;stroke-width:.40944"/><path d="M233.837 348.905c-7.738-1.45-15.445-2.928-23.18-4.412.07-1.883.138-3.865.902-5.616.989-1.976 1.752.748 2.2 1.676.964 2.027 3.457 2.33 5.437 2.531.595-2.598 1.16-5.204 1.672-7.82.73-4.04 1.6-8.113 1.48-12.238.076-1.45-1.464-2.176-.702-3.687 3.758.673 7.468 1.403 11.223 2.133.152 1.685-1.547 1.795-2.008 3.171-1.63 3.792-2.317 7.9-3.125 11.925-.486 2.62-.919 5.251-1.321 7.886 1.916.54 4.345 1.175 5.987-.355.757-.698 2.468-2.95 2.661-.748.067 1.91-.6 3.777-1.226 5.554z" style="fill:#fff;stroke-width:.75"/><path d="M309.692 81.162c-3.808-1.742-7.597-3.494-11.4-5.252.28-.963.568-1.977 1.187-2.783.764-.893.809.61.92 1.147.238 1.17 1.486 1.646 2.483 2.004.64-1.264 1.266-2.537 1.866-3.821.895-1.992 1.867-3.983 2.334-6.128.226-.738-.476-1.31.111-1.993 1.854.83 3.675 1.682 5.52 2.54-.138.89-1.03.73-1.444 1.38-1.328 1.748-2.21 3.78-3.143 5.755a132.528 132.528 0 0 0-1.694 3.9c.92.526 2.092 1.165 3.136.586.48-.263 1.653-1.206 1.47-.045-.21.994-.794 1.873-1.345 2.71z" style="fill:#fff;stroke-width:.398919"/></g></svg>